<mxfile host="Electron" modified="2024-07-05T05:58:43.273Z" agent="Mozilla/5.0 (Macintosh; Intel Mac OS X 10_15_7) AppleWebKit/537.36 (KHTML, like Gecko) draw.io/21.4.0 Chrome/112.0.5615.204 Electron/24.5.1 Safari/537.36" etag="zLMIR-QPVsJJTmbC7dHO" version="21.4.0" type="device">
  <diagram name="Page-1" id="NTfjIqOyYDIE2YFHJiTx">
    <mxGraphModel dx="776" dy="518" grid="1" gridSize="10" guides="1" tooltips="1" connect="1" arrows="1" fold="1" page="1" pageScale="1" pageWidth="827" pageHeight="1169" math="0" shadow="0">
      <root>
        <mxCell id="0" />
        <mxCell id="1" parent="0" />
        <mxCell id="N-HfJjE5SphdsyH7IdTA-2" value="10&lt;br style=&quot;font-size: 15px;&quot;&gt;20&lt;br style=&quot;font-size: 15px;&quot;&gt;30&lt;br style=&quot;font-size: 15px;&quot;&gt;40&lt;br style=&quot;font-size: 15px;&quot;&gt;50" style="ellipse;whiteSpace=wrap;html=1;fontStyle=1;fontSize=15;" vertex="1" parent="1">
          <mxGeometry x="20" y="60" width="90" height="120" as="geometry" />
        </mxCell>
        <mxCell id="N-HfJjE5SphdsyH7IdTA-3" value="40&lt;br&gt;50&lt;br&gt;60&lt;br&gt;70&lt;br&gt;80" style="ellipse;whiteSpace=wrap;html=1;fontStyle=1;fontSize=15;" vertex="1" parent="1">
          <mxGeometry x="130" y="60" width="90" height="120" as="geometry" />
        </mxCell>
        <mxCell id="N-HfJjE5SphdsyH7IdTA-4" value="s1" style="text;html=1;strokeColor=none;fillColor=none;align=center;verticalAlign=middle;whiteSpace=wrap;rounded=0;fontStyle=1;fontSize=15;" vertex="1" parent="1">
          <mxGeometry x="35" y="180" width="60" height="30" as="geometry" />
        </mxCell>
        <mxCell id="N-HfJjE5SphdsyH7IdTA-5" value="s2" style="text;html=1;strokeColor=none;fillColor=none;align=center;verticalAlign=middle;whiteSpace=wrap;rounded=0;fontStyle=1;fontSize=15;" vertex="1" parent="1">
          <mxGeometry x="145" y="180" width="60" height="30" as="geometry" />
        </mxCell>
        <mxCell id="N-HfJjE5SphdsyH7IdTA-6" value="" style="ellipse;whiteSpace=wrap;html=1;fontStyle=1;fontSize=15;" vertex="1" parent="1">
          <mxGeometry x="274" y="60" width="90" height="120" as="geometry" />
        </mxCell>
        <mxCell id="N-HfJjE5SphdsyH7IdTA-7" value="" style="ellipse;whiteSpace=wrap;html=1;fontStyle=1;fontSize=15;fillColor=none;" vertex="1" parent="1">
          <mxGeometry x="324" y="60" width="90" height="120" as="geometry" />
        </mxCell>
        <mxCell id="N-HfJjE5SphdsyH7IdTA-8" value="s1 intersection s2" style="text;html=1;strokeColor=none;fillColor=none;align=center;verticalAlign=middle;whiteSpace=wrap;rounded=0;fontStyle=1;fontSize=15;" vertex="1" parent="1">
          <mxGeometry x="284" y="180" width="130" height="30" as="geometry" />
        </mxCell>
        <mxCell id="N-HfJjE5SphdsyH7IdTA-10" value="40&lt;br&gt;50" style="text;html=1;strokeColor=none;fillColor=none;align=center;verticalAlign=middle;whiteSpace=wrap;rounded=0;fontStyle=1;fontSize=15;" vertex="1" parent="1">
          <mxGeometry x="324" y="105" width="40" height="30" as="geometry" />
        </mxCell>
        <mxCell id="N-HfJjE5SphdsyH7IdTA-11" value="" style="ellipse;whiteSpace=wrap;html=1;fontStyle=1;fontSize=15;" vertex="1" parent="1">
          <mxGeometry x="460" y="60" width="90" height="120" as="geometry" />
        </mxCell>
        <mxCell id="N-HfJjE5SphdsyH7IdTA-12" value="" style="ellipse;whiteSpace=wrap;html=1;fontStyle=1;fontSize=15;fillColor=none;" vertex="1" parent="1">
          <mxGeometry x="510" y="60" width="90" height="120" as="geometry" />
        </mxCell>
        <mxCell id="N-HfJjE5SphdsyH7IdTA-13" value="s2 intersection s1" style="text;html=1;strokeColor=none;fillColor=none;align=center;verticalAlign=middle;whiteSpace=wrap;rounded=0;fontStyle=1;fontSize=15;" vertex="1" parent="1">
          <mxGeometry x="470" y="180" width="130" height="30" as="geometry" />
        </mxCell>
        <mxCell id="N-HfJjE5SphdsyH7IdTA-14" value="40&lt;br&gt;50" style="text;html=1;strokeColor=none;fillColor=none;align=center;verticalAlign=middle;whiteSpace=wrap;rounded=0;fontStyle=1;fontSize=15;" vertex="1" parent="1">
          <mxGeometry x="510" y="105" width="40" height="30" as="geometry" />
        </mxCell>
        <mxCell id="N-HfJjE5SphdsyH7IdTA-20" value="" style="ellipse;whiteSpace=wrap;html=1;fontStyle=1;fontSize=15;" vertex="1" parent="1">
          <mxGeometry x="460" y="250" width="90" height="120" as="geometry" />
        </mxCell>
        <mxCell id="N-HfJjE5SphdsyH7IdTA-21" value="" style="ellipse;whiteSpace=wrap;html=1;fontStyle=1;fontSize=15;fillColor=none;" vertex="1" parent="1">
          <mxGeometry x="510" y="250" width="90" height="120" as="geometry" />
        </mxCell>
        <mxCell id="N-HfJjE5SphdsyH7IdTA-22" value="s2 union s1" style="text;html=1;strokeColor=none;fillColor=none;align=center;verticalAlign=middle;whiteSpace=wrap;rounded=0;fontStyle=1;fontSize=15;" vertex="1" parent="1">
          <mxGeometry x="465" y="370" width="130" height="30" as="geometry" />
        </mxCell>
        <mxCell id="N-HfJjE5SphdsyH7IdTA-23" value="40&lt;br&gt;50" style="text;html=1;strokeColor=none;fillColor=none;align=center;verticalAlign=middle;whiteSpace=wrap;rounded=0;fontStyle=1;fontSize=15;" vertex="1" parent="1">
          <mxGeometry x="510" y="295" width="40" height="30" as="geometry" />
        </mxCell>
        <mxCell id="N-HfJjE5SphdsyH7IdTA-24" value="10&lt;br&gt;20&lt;br&gt;30" style="text;html=1;strokeColor=none;fillColor=none;align=center;verticalAlign=middle;whiteSpace=wrap;rounded=0;fontStyle=1;fontSize=15;" vertex="1" parent="1">
          <mxGeometry x="470" y="275" width="40" height="70" as="geometry" />
        </mxCell>
        <mxCell id="N-HfJjE5SphdsyH7IdTA-25" value="60&lt;br&gt;70&lt;br&gt;80" style="text;html=1;strokeColor=none;fillColor=none;align=center;verticalAlign=middle;whiteSpace=wrap;rounded=0;fontStyle=1;fontSize=15;" vertex="1" parent="1">
          <mxGeometry x="550" y="275" width="40" height="70" as="geometry" />
        </mxCell>
        <mxCell id="N-HfJjE5SphdsyH7IdTA-26" value="" style="ellipse;whiteSpace=wrap;html=1;fontStyle=1;fontSize=15;" vertex="1" parent="1">
          <mxGeometry x="274" y="250" width="90" height="120" as="geometry" />
        </mxCell>
        <mxCell id="N-HfJjE5SphdsyH7IdTA-27" value="" style="ellipse;whiteSpace=wrap;html=1;fontStyle=1;fontSize=15;fillColor=none;" vertex="1" parent="1">
          <mxGeometry x="324" y="250" width="90" height="120" as="geometry" />
        </mxCell>
        <mxCell id="N-HfJjE5SphdsyH7IdTA-28" value="s1 union s2" style="text;html=1;strokeColor=none;fillColor=none;align=center;verticalAlign=middle;whiteSpace=wrap;rounded=0;fontStyle=1;fontSize=15;" vertex="1" parent="1">
          <mxGeometry x="279" y="370" width="130" height="30" as="geometry" />
        </mxCell>
        <mxCell id="N-HfJjE5SphdsyH7IdTA-29" value="40&lt;br&gt;50" style="text;html=1;strokeColor=none;fillColor=none;align=center;verticalAlign=middle;whiteSpace=wrap;rounded=0;fontStyle=1;fontSize=15;" vertex="1" parent="1">
          <mxGeometry x="324" y="295" width="40" height="30" as="geometry" />
        </mxCell>
        <mxCell id="N-HfJjE5SphdsyH7IdTA-30" value="10&lt;br&gt;20&lt;br&gt;30" style="text;html=1;strokeColor=none;fillColor=none;align=center;verticalAlign=middle;whiteSpace=wrap;rounded=0;fontStyle=1;fontSize=15;" vertex="1" parent="1">
          <mxGeometry x="284" y="275" width="40" height="70" as="geometry" />
        </mxCell>
        <mxCell id="N-HfJjE5SphdsyH7IdTA-31" value="60&lt;br&gt;70&lt;br&gt;80" style="text;html=1;strokeColor=none;fillColor=none;align=center;verticalAlign=middle;whiteSpace=wrap;rounded=0;fontStyle=1;fontSize=15;" vertex="1" parent="1">
          <mxGeometry x="364" y="275" width="40" height="70" as="geometry" />
        </mxCell>
        <mxCell id="N-HfJjE5SphdsyH7IdTA-32" value="" style="ellipse;whiteSpace=wrap;html=1;fontStyle=1;fontSize=15;" vertex="1" parent="1">
          <mxGeometry x="460" y="430" width="90" height="120" as="geometry" />
        </mxCell>
        <mxCell id="N-HfJjE5SphdsyH7IdTA-33" value="" style="ellipse;whiteSpace=wrap;html=1;fontStyle=1;fontSize=15;fillColor=none;" vertex="1" parent="1">
          <mxGeometry x="510" y="430" width="90" height="120" as="geometry" />
        </mxCell>
        <mxCell id="N-HfJjE5SphdsyH7IdTA-34" value="s2 subtract s1" style="text;html=1;strokeColor=none;fillColor=none;align=center;verticalAlign=middle;whiteSpace=wrap;rounded=0;fontStyle=1;fontSize=15;" vertex="1" parent="1">
          <mxGeometry x="465" y="550" width="130" height="30" as="geometry" />
        </mxCell>
        <mxCell id="N-HfJjE5SphdsyH7IdTA-37" value="60&lt;br&gt;70&lt;br&gt;80" style="text;html=1;strokeColor=none;fillColor=none;align=center;verticalAlign=middle;whiteSpace=wrap;rounded=0;fontStyle=1;fontSize=15;" vertex="1" parent="1">
          <mxGeometry x="550" y="455" width="40" height="70" as="geometry" />
        </mxCell>
        <mxCell id="N-HfJjE5SphdsyH7IdTA-38" value="" style="ellipse;whiteSpace=wrap;html=1;fontStyle=1;fontSize=15;" vertex="1" parent="1">
          <mxGeometry x="274" y="430" width="90" height="120" as="geometry" />
        </mxCell>
        <mxCell id="N-HfJjE5SphdsyH7IdTA-39" value="" style="ellipse;whiteSpace=wrap;html=1;fontStyle=1;fontSize=15;fillColor=none;" vertex="1" parent="1">
          <mxGeometry x="324" y="430" width="90" height="120" as="geometry" />
        </mxCell>
        <mxCell id="N-HfJjE5SphdsyH7IdTA-40" value="s1 subtract s2" style="text;html=1;strokeColor=none;fillColor=none;align=center;verticalAlign=middle;whiteSpace=wrap;rounded=0;fontStyle=1;fontSize=15;" vertex="1" parent="1">
          <mxGeometry x="279" y="550" width="130" height="30" as="geometry" />
        </mxCell>
        <mxCell id="N-HfJjE5SphdsyH7IdTA-42" value="10&lt;br&gt;20&lt;br&gt;30" style="text;html=1;strokeColor=none;fillColor=none;align=center;verticalAlign=middle;whiteSpace=wrap;rounded=0;fontStyle=1;fontSize=15;" vertex="1" parent="1">
          <mxGeometry x="284" y="455" width="40" height="70" as="geometry" />
        </mxCell>
      </root>
    </mxGraphModel>
  </diagram>
</mxfile>
